<?xml version="1.0" standalone="no"?>
<!DOCTYPE svg PUBLIC "-//W3C//DTD SVG 20010904//EN"
 "http://www.w3.org/TR/2001/REC-SVG-20010904/DTD/svg10.dtd">
<svg version="1.0" xmlns="http://www.w3.org/2000/svg"
 width="1278.000000pt" height="1280.000000pt" viewBox="0 0 1278.000000 1280.000000"
 preserveAspectRatio="xMidYMid meet">
<metadata>
Created by potrace 1.15, written by Peter Selinger 2001-2017
</metadata>
<g transform="translate(0.000000,1280.000000) scale(0.100000,-0.100000)"
fill="#000000" stroke="none">
<path d="M6263 12786 c-176 -57 -293 -236 -263 -397 19 -99 90 -204 164 -244
35 -19 36 -21 36 -76 l0 -57 -37 -7 c-95 -18 -163 -52 -163 -82 0 -8 31 -28
70 -46 l70 -31 0 -102 c0 -93 -2 -103 -20 -109 -10 -3 -31 -20 -45 -36 -24
-30 -25 -35 -25 -176 0 -79 -3 -143 -7 -141 -237 121 -437 191 -688 239 -108
21 -495 19 -607 -4 -194 -39 -380 -119 -732 -314 -115 -64 -240 -129 -279
-145 l-70 -30 -176 13 c-209 14 -247 26 -427 130 -150 87 -196 102 -267 89
-93 -18 -229 -100 -250 -151 -4 -10 -15 -4 -41 25 l-35 39 -58 -29 c-77 -37
-173 -130 -173 -167 0 -78 161 -264 221 -255 16 2 31 19 48 53 21 41 31 50 53
50 30 0 136 -85 185 -150 81 -105 84 -282 7 -301 -34 -9 -102 38 -129 89 -22
41 -39 45 -103 23 -46 -17 -110 -56 -116 -73 -3 -6 23 -64 57 -129 48 -90 71
-124 97 -140 42 -27 84 -64 78 -70 -3 -2 -28 -8 -58 -14 -29 -6 -59 -15 -67
-21 -10 -9 -13 -46 -13 -148 0 -171 -17 -498 -30 -610 -19 -145 -30 -183 -65
-218 -42 -42 -75 -42 -150 -3 -31 17 -68 30 -82 30 -34 0 -57 -57 -51 -127 6
-69 33 -98 104 -114 30 -7 54 -16 54 -20 0 -4 -16 -54 -36 -111 -20 -56 -139
-402 -266 -768 -126 -366 -297 -861 -380 -1100 -82 -239 -213 -617 -290 -840
-77 -223 -161 -468 -188 -545 -27 -77 -110 -318 -185 -535 -75 -217 -177 -510
-225 -650 -48 -140 -120 -347 -159 -459 -39 -112 -70 -206 -68 -208 2 -2 82
216 177 484 95 269 276 778 402 1133 217 609 383 1078 678 1920 70 201 192
554 271 785 78 231 180 528 225 660 l81 240 57 16 c133 40 161 90 181 328 17
199 28 251 60 281 55 51 66 5 56 -215 -6 -129 -10 -156 -30 -193 -18 -33 -24
-64 -28 -145 -8 -144 -6 -147 106 -147 l88 0 7 38 c13 82 6 201 -15 260 -24
64 -36 229 -25 334 9 83 17 95 50 80 46 -21 64 -94 86 -355 6 -65 17 -135 26
-155 23 -56 72 -100 129 -118 l51 -16 63 -192 c203 -612 694 -2023 1195 -3427
140 -393 320 -902 402 -1132 81 -229 149 -416 151 -414 2 3 -52 166 -121 363
-68 198 -163 472 -211 609 -48 138 -153 444 -235 680 -82 237 -274 795 -428
1240 -636 1839 -782 2264 -782 2268 0 2 24 9 54 16 30 7 66 21 80 32 42 33 54
109 30 192 -4 13 -16 17 -53 17 -39 0 -56 -6 -86 -30 -46 -37 -84 -38 -124 -5
-60 51 -72 153 -77 620 -3 427 8 388 -115 400 -52 5 -66 10 -62 21 3 8 17 17
32 20 74 17 147 81 183 159 19 43 23 66 23 160 0 135 -13 191 -76 324 -27 58
-47 111 -44 119 8 22 67 10 277 -57 204 -65 374 -106 483 -116 121 -12 206 8
575 133 l345 117 105 -2 c58 -2 321 -20 585 -41 l480 -39 85 -42 c47 -24 110
-58 141 -77 l57 -34 3 -79 c5 -90 23 -121 85 -141 19 -7 34 -13 34 -14 0 -1
-20 -24 -45 -50 -36 -37 -43 -50 -36 -64 21 -38 91 -94 144 -116 l57 -23 -38
-11 c-53 -16 -125 -64 -151 -101 l-22 -31 271 0 c270 0 271 0 257 20 -24 35
-100 87 -157 108 -30 12 -48 21 -40 22 48 2 210 111 210 142 0 5 -21 29 -46
53 l-45 44 46 22 c65 30 75 50 75 139 l0 76 79 47 c43 26 109 61 147 79 l68
32 540 43 c298 24 561 41 586 39 46 -5 226 -62 503 -160 87 -31 206 -66 265
-78 98 -19 116 -20 212 -10 126 14 275 51 508 126 183 59 219 66 229 40 3 -9
-15 -58 -40 -112 -26 -53 -54 -128 -62 -166 -18 -76 -21 -233 -6 -284 27 -93
100 -166 194 -194 56 -17 46 -34 -23 -42 -33 -4 -73 -12 -90 -17 l-30 -11 0
-331 c0 -320 -10 -512 -31 -589 -11 -44 -69 -98 -106 -98 -14 0 -40 13 -60 30
-28 25 -42 30 -84 30 -44 0 -51 -3 -59 -26 -14 -35 -12 -114 3 -144 17 -33 69
-67 117 -75 22 -4 40 -10 40 -13 0 -3 -29 -90 -64 -192 -36 -102 -322 -930
-636 -1840 -747 -2163 -732 -2121 -919 -2659 -89 -255 -160 -466 -158 -468 2
-2 57 146 122 329 64 183 245 693 402 1133 540 1518 1006 2852 1214 3482 72
218 74 223 104 229 58 12 106 45 135 90 32 51 36 69 50 234 19 217 41 300 87
317 35 14 43 -23 43 -196 0 -144 -3 -172 -20 -210 -16 -35 -20 -65 -20 -165 0
-66 4 -127 9 -134 10 -17 176 -15 190 2 17 22 22 88 11 168 -7 46 -16 85 -20
88 -5 3 -17 24 -26 45 -14 31 -18 77 -21 210 -4 188 0 206 42 187 37 -17 54
-66 65 -190 24 -242 29 -282 49 -320 32 -62 70 -89 166 -118 28 -9 33 -20 122
-284 337 -999 675 -1966 1236 -3540 140 -393 310 -871 377 -1063 68 -191 125
-346 127 -344 2 2 -69 213 -158 468 -209 603 -472 1363 -974 2819 -85 245
-269 778 -409 1185 -141 407 -256 743 -256 747 0 4 20 10 44 13 103 16 140 75
115 182 -12 51 -17 58 -41 61 -15 2 -52 -10 -87 -27 -33 -17 -72 -31 -86 -31
-34 0 -72 26 -90 61 -33 63 -57 318 -71 742 -7 236 1 217 -96 231 -43 7 -46 9
-36 26 7 10 29 28 50 40 47 27 72 59 136 183 l51 97 -33 25 c-43 33 -115 65
-148 65 -20 0 -31 -8 -42 -28 -22 -42 -92 -102 -120 -102 -31 0 -62 39 -71 90
-9 52 17 150 55 205 36 52 166 165 190 165 22 0 44 -26 63 -72 12 -29 22 -38
40 -38 54 0 179 127 213 217 16 40 15 43 -6 78 -40 65 -217 178 -228 146 -2
-7 -15 -24 -27 -39 l-24 -27 -35 41 c-66 77 -231 143 -309 124 -47 -11 -63
-19 -167 -79 -196 -113 -222 -121 -419 -138 -137 -12 -186 -13 -220 -4 -52 14
-173 73 -338 168 -296 168 -520 265 -703 304 -92 20 -134 23 -340 23 -259 1
-314 -7 -530 -69 -132 -39 -252 -86 -369 -144 -44 -23 -83 -41 -86 -41 -3 0
-5 66 -5 148 0 160 -5 179 -58 206 l-27 14 5 102 5 102 50 20 c28 11 58 27 68
37 18 18 18 19 -3 38 -19 18 -146 63 -177 63 -9 0 -13 17 -13 54 0 51 2 56 33
75 51 32 113 101 144 161 24 48 28 66 28 140 0 73 -4 93 -28 143 -79 159 -267
251 -414 203z m-3445 -2879 l-3 -81 -42 -9 c-22 -4 -63 -4 -90 0 l-48 8 -3 83
c-3 83 6 102 26 57 10 -23 17 -25 72 -25 60 0 60 0 60 30 0 22 4 28 15 23 13
-4 15 -21 13 -86z m7102 57 c0 -24 2 -25 58 -22 48 3 59 7 67 26 18 40 25 23
25 -58 0 -68 -3 -82 -17 -87 -24 -9 -112 -9 -145 0 -27 7 -28 9 -28 80 0 69
12 103 32 91 4 -3 8 -16 8 -30z"/>
<path d="M6090 6062 l0 -4009 -51 -43 c-61 -52 -189 -200 -189 -219 0 -15 48
-78 119 -153 24 -27 39 -48 34 -48 -64 0 -457 -24 -588 -36 -508 -45 -948
-142 -1108 -244 l-46 -29 -3 -67 -3 -67 -61 -13 c-110 -22 -186 -72 -227 -149
-21 -38 -22 -52 -22 -327 l0 -287 35 -36 c143 -150 667 -254 1550 -311 196
-13 417 -17 845 -18 573 -1 770 6 1160 40 714 61 1155 178 1215 323 7 19 10
117 8 307 -3 250 -5 283 -22 317 -40 81 -130 140 -233 153 l-53 6 0 60 c0 54
-3 63 -30 88 -138 129 -784 248 -1490 275 -85 3 -179 8 -209 11 l-53 6 58 51
c84 73 134 129 134 149 0 20 -101 123 -187 191 l-63 49 0 4019 0 4019 -260 0
-260 0 0 -4008z"/>
<path d="M2640 8712 c0 -104 70 -4644 75 -4904 l7 -298 -199 0 c-974 0 -2104
-103 -2416 -220 -57 -21 -107 -54 -107 -71 0 -5 21 -20 47 -33 55 -28 53 -34
-2 -10 -20 8 -39 14 -41 12 -7 -8 46 -106 93 -173 159 -224 449 -486 736 -665
427 -267 876 -419 1452 -492 154 -19 655 -16 840 6 745 87 1390 353 1915 790
184 154 375 366 435 485 29 58 29 57 -30 37 -11 -4 -3 2 18 14 21 12 37 27 34
33 -23 72 -1225 217 -2252 272 -154 8 -332 15 -396 15 l-117 0 -4 2605 c-2
1683 -7 2608 -13 2614 -6 5 -25 12 -42 16 -33 7 -33 6 -33 -33z"/>
<path d="M10020 8741 l-25 -7 -6 -1289 c-3 -710 -7 -1885 -8 -2612 l-1 -1323
-192 0 c-338 0 -880 -22 -1273 -51 -670 -49 -1164 -139 -1235 -224 -15 -18
-17 -17 40 -49 25 -14 41 -26 35 -26 -5 1 -21 7 -35 15 -57 33 -58 18 -4 -76
109 -185 350 -435 598 -618 446 -330 956 -530 1566 -613 210 -29 702 -31 915
-5 654 81 1189 275 1670 604 234 160 484 389 604 552 63 85 106 159 98 167 -2
3 -17 0 -32 -6 -43 -17 -40 -5 5 15 22 10 40 21 40 25 0 81 -1593 259 -2557
287 l-232 6 5 186 c2 102 11 652 19 1221 9 569 24 1607 35 2305 11 699 20
1327 20 1398 0 135 1 132 -50 118z"/>
<path d="M4941 3615 c1 -19 18 -51 18 -35 0 8 -4 22 -9 30 -5 8 -9 11 -9 5z"/>
<path d="M7746 3605 c-3 -9 -6 -22 -5 -28 0 -7 5 -1 10 12 5 13 8 26 5 28 -2
2 -6 -3 -10 -12z"/>
<path d="M4960 3555 c0 -5 5 -17 10 -25 5 -8 10 -10 10 -5 0 6 -5 17 -10 25
-5 8 -10 11 -10 5z"/>
<path d="M7726 3545 c-9 -26 -7 -32 5 -12 6 10 9 21 6 23 -2 3 -7 -2 -11 -11z"/>
<path d="M436 3495 c-9 -26 -7 -32 5 -12 6 10 9 21 6 23 -2 3 -7 -2 -11 -11z"/>
<path d="M12250 3505 c0 -5 5 -17 10 -25 5 -8 10 -10 10 -5 0 6 -5 17 -10 25
-5 8 -10 11 -10 5z"/>
</g>
</svg>
